<?xml version="1.0" encoding="UTF-8" standalone="no"?>
<!DOCTYPE svg PUBLIC "-//W3C//DTD SVG 1.1//EN" "http://www.w3.org/Graphics/SVG/1.1/DTD/svg11.dtd">
<svg width="100%" height="100%" viewBox="0 0 512 512" version="1.1" xmlns="http://www.w3.org/2000/svg" xmlns:xlink="http://www.w3.org/1999/xlink" xml:space="preserve" xmlns:serif="http://www.serif.com/" style="fill-rule:evenodd;clip-rule:evenodd;stroke-linejoin:round;stroke-miterlimit:2;">
    <rect id="Artboard1" x="0" y="0" width="512" height="512" style="fill:rgb(40,40,40);fill-opacity:0;"/>
    <g id="Artboard11" serif:id="Artboard1">
        <g transform="matrix(1.34467,0,0,1.34467,-222.062,-120.446)">
            <path d="M315.878,182.68L315.878,160.213L381.46,160.213C396.264,160.213 407.562,161.122 415.354,162.94C426.263,165.45 435.57,169.996 443.275,176.576C453.318,185.06 460.829,195.904 465.807,209.107C470.785,222.31 473.274,237.396 473.274,254.365C473.274,268.823 471.586,281.636 468.209,292.804C464.833,303.973 460.504,313.215 455.223,320.531C449.942,327.846 444.163,333.604 437.886,337.803C431.609,342.002 424.034,345.183 415.159,347.348C406.285,349.512 396.091,350.594 384.576,350.594L364.956,350.594L364.956,328.128L381.719,328.128C394.273,328.128 404.121,326.959 411.263,324.621C418.406,322.284 424.098,318.994 428.341,314.752C434.314,308.778 438.968,300.748 442.301,290.662C445.634,280.576 447.301,268.347 447.301,253.975C447.301,234.062 444.033,218.76 437.496,208.068C430.96,197.376 423.016,190.211 413.666,186.575C406.913,183.978 396.048,182.679 381.07,182.679L364.956,182.679L341.072,182.679L315.878,182.68Z" style="fill:rgb(177,98,134);"/>
        </g>
        <g transform="matrix(29.3029,0,0,29.3029,-2713.4,-4103.72)">
            <g transform="matrix(12,0,0,12,101.587,154.129)">
            </g>
            <text x="95.587px" y="154.129px" style="font-family:'ArialMT', 'Arial', sans-serif;font-size:12px;fill:rgb(235,219,178);">J</text>
        </g>
    </g>
</svg>
